<svg width="176" height="22" viewBox="0 0 176 22" fill="none" xmlns="http://www.w3.org/2000/svg">
<path d="M32.1286 4.58582H27.021V21H22.8607V4.58582H17.7695V0.498627H32.1286V4.58582Z" fill="black"/>
<path d="M47.1553 4.58582H42.0806V21H37.8956V4.58582H32.8291V0.498627H47.1553V4.58582Z" fill="black"/>
<path d="M49.1489 0.506805H53.268V21H49.1489V0.506805Z" fill="black"/>
<path d="M67.2809 21L60.6904 11.3134V21H56.5713V0.506827H63.3101C65.1275 0.465123 66.8873 1.14063 68.2032 2.38508C69.5191 3.62952 70.2837 5.34121 70.329 7.14443C70.359 8.37072 70.0094 9.57665 69.3274 10.5998C68.6454 11.6229 67.6638 12.414 66.5147 12.8665L72.3803 21.0409L67.2809 21ZM60.6904 9.73571H63.3513C64.0484 9.7401 64.7191 9.47118 65.2174 8.98743C65.7157 8.50369 66.0014 7.84426 66.0122 7.1526C65.9971 6.46231 65.7102 5.80534 65.2128 5.32249C64.7154 4.83964 64.0471 4.56934 63.3513 4.5695H60.6904V9.73571Z" fill="black"/>
<path d="M78.1305 4.5613V8.56675H85.2565V12.6539H78.1305V16.8883H86.4346V20.9755H73.9785V0.506805H86.4346V4.594L78.1305 4.5613Z" fill="black"/>
<path d="M99.4508 21H94.9692L104.83 0H104.962L114.848 21H110.35M110.35 21L104.904 9.15531L99.4508 21H110.35Z" fill="black"/>
<path d="M4.48156 21H0L9.88579 0H10.0176L19.9034 21H15.3724M15.3724 21L9.94346 9.15531L4.48156 21H15.3724Z" fill="black"/>
<path d="M129.009 16.9046V20.9918H116.553V0.506805H120.672V16.9046H129.009Z" fill="black"/>
<path d="M143.451 16.9046V20.9918H130.987V0.506805H135.106V16.9046H143.451Z" fill="black"/>
<path d="M149.597 4.5613V8.56675H156.723V12.6539H149.597V16.8883H157.901V20.9755H145.445V0.506805H157.901V4.594L149.597 4.5613Z" fill="black"/>
<path d="M165.471 12.2044L159.079 0.506805H163.766L167.531 7.6267L171.304 0.506805H176.008L169.599 12.2044V21H165.48L165.471 12.2044Z" fill="black"/>
</svg>
