<svg width="145" height="120" viewBox="0 0 145 120" fill="none" xmlns="http://www.w3.org/2000/svg">
<path d="M2 110.289V9.67919C2 9.588 2.06593 9.51017 2.15588 9.49518L43.385 2.62366C43.4042 2.62046 43.4239 2.62029 43.4431 2.62316L89.7439 9.51703C89.7623 9.51977 89.781 9.51974 89.7994 9.51694L142.91 1.43889C143.023 1.42172 143.125 1.50912 143.125 1.62333V117.785C143.125 117.898 143.024 117.986 142.912 117.97L89.7998 110.449C89.7811 110.446 89.7622 110.446 89.7436 110.449L43.4458 117.995C43.4248 117.998 43.4033 117.998 43.3823 117.994L2.15307 110.472C2.06442 110.456 2 110.379 2 110.289Z" fill="white" stroke="#949494" stroke-width="2.2386" stroke-linecap="round"/>
<path d="M2 26.6837L47.9845 21.5536M47.9845 21.5536L66.0798 33.8658M47.9845 21.5536L60.6699 5.41702M66.0798 33.8658L43.9737 64.0869M66.0798 33.8658L101.897 56.998M43.9737 64.0869L57.1 97.6941C57.1164 97.736 57.1474 97.7706 57.1872 97.7915L72.5158 105.827M43.9737 64.0869L2 45.7117M82.776 111.564L72.5158 105.827M72.5158 105.827L101.897 56.998M101.897 56.998L142.577 76.7355C142.701 76.7956 142.845 76.7054 142.845 76.5677V44.5315C142.845 44.4556 142.799 44.3872 142.729 44.3587L90.2635 23.0563C90.2466 23.0495 90.2308 23.0401 90.2165 23.0286L69.9041 6.62959M118.594 5.23047L142.565 15.2109" stroke="#949494" stroke-width="2.2386" stroke-linecap="round"/>
<path d="M10.6746 42.503V32.5426C10.6746 32.4464 10.7477 32.366 10.8434 32.3569L42.9477 29.2949H47.7331C47.7751 29.2949 47.8159 29.3091 47.8488 29.3352L53.9238 34.1407C53.9951 34.1972 54.0154 34.2969 53.9716 34.3767L43.0249 54.3384C42.9805 54.4193 42.8836 54.4556 42.797 54.4238L10.7969 42.6781C10.7234 42.6511 10.6746 42.5812 10.6746 42.503Z" fill="#96C624"/>
<path d="M138.645 87.3518L116.685 75.1207C116.652 75.1026 116.614 75.0947 116.577 75.098C98.5743 76.7009 91.3098 92.737 94.408 107.424C94.4242 107.501 94.4875 107.559 94.5656 107.57L138.53 113.401C138.642 113.416 138.741 113.329 138.741 113.216V87.5148C138.741 87.4471 138.704 87.3847 138.645 87.3518Z" fill="#96C624"/>
<path d="M5.26465 100.113V74.2534C5.26465 74.1504 5.34817 74.0668 5.4512 74.0668H8.40647C8.42603 74.0668 8.44654 74.0703 8.46514 74.0763C33.3377 82.1693 21.2 102.189 5.42913 100.298C5.33602 100.286 5.26465 100.207 5.26465 100.113Z" fill="#96C624"/>
<path d="M59.7932 84.5638L54.6295 65.3842C54.6152 65.3312 54.625 65.2747 54.6561 65.2296L68.8672 44.6512C68.925 44.5675 69.0392 44.5455 69.124 44.6018L81.3289 52.7081C81.409 52.7613 81.4355 52.8667 81.3901 52.9515L64.4536 84.6034C64.4211 84.664 64.3579 84.7019 64.2891 84.7019H59.9734C59.889 84.7019 59.8152 84.6453 59.7932 84.5638Z" fill="#D3D0C9"/>
<path d="M59.9209 21.4077L65.9727 11.5622C66.0302 11.4686 66.1557 11.4448 66.2435 11.5107L82.3618 23.5993C82.4382 23.6566 82.459 23.7624 82.41 23.8443L76.6313 33.5055C76.5751 33.5996 76.4502 33.6251 76.3616 33.5607L59.9702 21.6563C59.8913 21.5991 59.8698 21.4907 59.9209 21.4077Z" fill="#D3D0C9"/>
<path d="M78.8881 36.5937L85.7631 27.3667C85.8161 27.2956 85.9117 27.2716 85.992 27.3093L99.3793 33.5931C99.479 33.64 99.5167 33.7627 99.4603 33.8574L93.2165 44.3543C93.1672 44.4371 93.063 44.4687 92.976 44.4273L89.3725 42.7114C89.2826 42.6686 89.2422 42.5628 89.2806 42.4709L90.8158 38.8035C90.8568 38.7057 90.808 38.5934 90.7085 38.5566L86.0335 36.8251C85.9351 36.7887 85.8261 36.8404 85.7922 36.9396L84.7164 40.0843C84.6779 40.1968 84.5453 40.2451 84.4435 40.1836L78.9414 36.8649C78.847 36.808 78.8223 36.6821 78.8881 36.5937Z" fill="#D3D0C9"/>
<path d="M113.858 55.3334L120.929 44.636C120.98 44.5583 121.081 44.5304 121.165 44.5706L138.262 52.7512C138.327 52.7822 138.368 52.8476 138.368 52.9194V67.8863C138.368 68.026 138.22 68.1161 138.096 68.0521L113.928 55.6021C113.829 55.5513 113.797 55.426 113.858 55.3334Z" fill="#D3D0C9"/>
<path d="M121.107 29.8053L128.461 17.8209C128.521 17.7241 128.48 17.597 128.376 17.552L111.091 10.1046C111.057 10.0899 111.019 10.0857 110.982 10.0926L104.221 11.3717C104.167 11.382 104.12 11.4156 104.093 11.4635L99.6627 19.3302C99.61 19.4238 99.647 19.5425 99.7436 19.5895L120.867 29.8755C120.953 29.9175 121.057 29.8872 121.107 29.8053Z" fill="#D3D0C9"/>
<path d="M5.45117 18.9043V12.8861C5.45117 12.5093 5.73209 12.1917 6.10607 12.1456L43.6564 7.51606C44.4057 7.42368 44.8011 8.37719 44.2055 8.84102C36.4814 14.8559 30.4862 18.3811 6.24792 19.6478C5.82193 19.67 5.45117 19.3309 5.45117 18.9043Z" fill="#72A9F2"/>
<path d="M26.2823 74.5878C14.8396 67.3724 12.0107 67.5242 6.05835 66.4389C5.70596 66.3746 5.45117 66.0666 5.45117 65.7084V58.1974C5.45117 57.6947 5.94539 57.338 6.42529 57.4878C30.2346 64.9192 43.8 71.0075 43.6006 86.1C43.4187 99.8619 47.4848 104.882 57.0986 110.8C57.7064 111.174 57.5094 112.117 56.8008 112.203L44.1053 113.741C43.8008 113.778 43.5032 113.623 43.3582 113.352C38.8381 104.921 36.9874 99.5408 36.1386 88.4318C35.3858 78.58 31.3608 79.3185 26.3982 74.6773C26.3632 74.6446 26.3228 74.6133 26.2823 74.5878Z" fill="#72A9F2"/>
<path d="M3.02606 109.792V9.89453L44.1603 2.99219V117.067L3.02606 109.792Z" fill="black" fill-opacity="0.18"/>
<path d="M3.02606 109.699V107.553L44.6266 105.501L64.774 99.1586L91.0775 52.148L141.912 27.1504V34.7057L96.1143 55.5059L91.0775 62.5948L68.505 103.916L44.6266 111.471L23.2667 113.15L3.02606 109.699Z" fill="black"/>
<path d="M91.4869 18.0977C81.7939 18.1113 73.9404 25.9513 73.9404 35.6203C73.9404 42.0238 77.3843 47.6242 82.5263 50.6815C87.5433 54.4078 90.94 60.1803 91.4763 66.7603L91.4867 66.7781L91.4912 66.7707L91.4942 66.7781L91.5046 66.7603C92.0415 60.1798 95.4377 54.4076 100.455 50.6815C105.597 47.6246 109.041 42.0238 109.041 35.6203C109.041 25.9513 101.188 18.1114 91.4945 18.0977C91.492 18.0977 91.4896 18.0977 91.4871 18.0977H91.4869Z" fill="#FF0000"/>
<path d="M103.266 35.5524C103.266 38.6665 102.025 41.6531 99.8169 43.8551C97.6087 46.0572 94.6137 47.2943 91.4908 47.2943C88.3679 47.2943 85.3729 46.0572 83.1647 43.8551C80.9564 41.6531 79.7159 38.6665 79.7159 35.5524C79.7159 32.4383 80.9564 29.4517 83.1647 27.2497C85.3729 25.0476 88.3679 23.8105 91.4908 23.8105C94.6137 23.8105 97.6087 25.0476 99.8169 27.2497C102.025 29.4517 103.266 32.4383 103.266 35.5524Z" fill="white"/>
<path d="M103.037 35.1358C103.037 38.14 101.821 41.0211 99.6551 43.1454C97.4895 45.2696 94.5522 46.463 91.4896 46.463C88.4269 46.463 85.4897 45.2696 83.3241 43.1454C81.1585 41.0211 79.9419 38.14 79.9419 35.1358C79.9419 32.1316 81.1585 29.2505 83.3241 27.1263C85.4897 25.002 88.4269 23.8086 91.4896 23.8086C94.5522 23.8086 97.4895 25.002 99.6551 27.1263C101.821 29.2505 103.037 32.1316 103.037 35.1358Z" fill="white"/>
</svg>
