<svg width="743" height="743" viewBox="0 0 743 743" xmlns="http://www.w3.org/2000/svg">
<g clip-path="url(#clip0_16_106)">
<path d="M371.5 0C298.024 0 226.199 21.7881 165.106 62.609C104.013 103.43 56.3969 161.45 28.2789 229.333C0.160965 297.216 -7.19597 371.912 7.13844 443.976C21.4728 516.04 56.8548 582.235 108.81 634.19C160.765 686.145 226.96 721.527 299.024 735.862C371.088 750.196 445.784 742.839 513.667 714.721C581.55 686.603 639.57 638.987 680.391 577.894C721.212 516.802 743 444.976 743 371.5C743 272.972 703.86 178.48 634.19 108.81C564.521 39.1401 470.028 0 371.5 0ZM381.119 182.483H440.737L577.849 395.229C546.261 382.422 513.499 372.728 480.028 366.282L455.618 317.871L455.936 362.199C431.161 358.502 406.166 356.471 381.119 356.119V182.483ZM311.837 182.483H371.5V355.983C346.482 355.979 321.49 357.6 296.683 360.838L296.955 317.871L273.544 364.377C240.939 369.965 208.932 378.608 177.946 390.193L311.837 182.483ZM212.746 503.031H116.877L155.306 443.368C187.078 435.708 219.25 429.816 251.675 425.719L212.746 503.031ZM371.546 503.031H295.866L296.411 421.363C321.002 419.427 346.032 418.459 371.5 418.459L371.546 503.031ZM296.456 412.289C281.347 413.468 266.466 415.011 251.72 416.826C219.296 420.923 187.123 426.815 155.351 434.475C123.44 442.164 92.0415 451.847 61.3421 463.468C96.8112 436.403 136.109 414.766 177.946 399.267C208.93 387.667 240.937 379.008 273.544 373.406C281.166 372.105 288.879 370.925 296.683 369.867C321.491 366.644 346.483 365.038 371.5 365.057C374.722 365.057 377.898 365.057 381.119 365.057C406.166 365.409 431.161 367.441 455.936 371.137C464.058 372.317 472.088 373.723 480.028 375.22C513.494 381.687 546.254 391.381 577.849 404.167C614.978 419.064 649.927 438.904 681.749 463.15C654.646 452.953 626.985 444.303 598.901 437.243C566.779 429.007 534.209 422.629 501.353 418.142C486.441 416.055 471.317 414.33 455.981 412.969C431.39 410.792 406.36 409.582 380.892 409.34H371.5C346.062 409.309 321.032 410.262 296.411 412.198L296.456 412.289ZM381.164 503.031V418.323C406.602 418.535 431.632 419.745 456.254 421.953L456.798 503.031H381.164ZM539.964 503.031L501.716 427.125C534.45 431.626 566.898 438.004 598.901 446.226L635.516 503.031H539.964Z" fill="#fff"/>
</g>
<defs>
<clipPath id="clip0_16_106">
<rect width="743" height="743" fill="white"/>
</clipPath>
</defs>
</svg>
