<svg width="152" height="18" viewBox="0 0 152 18" fill="none" xmlns="http://www.w3.org/2000/svg">
<g clip-path="url(#clip0_349_1666)">
<path d="M27.7477 3.93068H23.3366V18H19.7436V3.93068H15.3467V0.427368H27.7477V3.93068Z" fill="black"/>
<path d="M40.7251 3.93068H36.3424V18H32.7281V3.93068H28.3525V0.427368H40.7251V3.93068Z" fill="black"/>
<path d="M42.4468 0.434448H46.0042V18H42.4468V0.434448Z" fill="black"/>
<path d="M58.1061 18L52.4143 9.69717V18H48.8569V0.434423H54.6768C56.2464 0.398677 57.7662 0.977684 58.9027 2.04435C60.0392 3.11102 60.6994 4.57818 60.7386 6.1238C60.7645 7.1749 60.4626 8.20856 59.8736 9.08551C59.2846 9.96245 58.4368 10.6405 57.4445 11.0284L62.5102 18.035L58.1061 18ZM52.4143 8.34489H54.7124C55.3145 8.34866 55.8937 8.11815 56.324 7.70351C56.7544 7.28887 57.0011 6.72365 57.0105 6.1308C56.9974 5.53912 56.7496 4.97601 56.32 4.56214C55.8905 4.14827 55.3133 3.91657 54.7124 3.91671H52.4143V8.34489Z" fill="black"/>
<path d="M67.4765 3.90973V7.34297H73.6307V10.8463H67.4765V14.4757H74.6482V17.979H63.8906V0.434448H74.6482V3.93776L67.4765 3.90973Z" fill="black"/>
<path d="M85.8895 18H82.019L90.5354 0H90.6493L99.187 18H95.3023M95.3023 18L90.5995 7.84741L85.8895 18H95.3023Z" fill="#1D41E0"/>
<path d="M3.87044 18H0L8.53773 0H8.65156L17.1893 18H13.2762M13.2762 18L8.58753 7.84741L3.87044 18H13.2762Z" fill="#1D41E0"/>
<path d="M111.417 14.4897V17.993H100.66V0.434448H104.217V14.4897H111.417Z" fill="black"/>
<path d="M123.89 14.4897V17.993H113.125V0.434448H116.682V14.4897H123.89Z" fill="black"/>
<path d="M129.197 3.90973V7.34297H135.351V10.8463H129.197V14.4757H136.369V17.979H125.611V0.434448H136.369V3.93776L129.197 3.90973Z" fill="black"/>
<path d="M142.907 10.4609L137.386 0.434448H141.435L144.686 6.53721L147.945 0.434448H152.007L146.472 10.4609V18H142.914L142.907 10.4609Z" fill="black"/>
</g>
<defs>
<clipPath id="clip0_349_1666">
<rect width="152" height="18" fill="white"/>
</clipPath>
</defs>
</svg>
